<svg width="164" height="50" viewBox="0 0 164 50" fill="none" xmlns="http://www.w3.org/2000/svg">
<path d="M67.7899 19.6464C67.6212 18.2125 66.7779 17.257 64.6969 17.257C62.335 17.257 61.1826 19.1969 61.1826 21.4176C61.1826 23.6673 62.251 25.579 64.8938 25.579C66.6932 25.579 67.4243 24.7922 67.8181 23.4705H70.8828C70.4608 26.1979 68.4645 28.3064 64.6687 28.3064C60.3951 28.3064 58.1179 24.9891 58.1179 21.4176C58.1179 17.8752 60.3951 14.5296 64.6412 14.5296C68.9147 14.5296 70.6577 17.1158 70.8546 19.6464H67.7899Z" fill="#333333"/>
<path d="M83.002 21.4176C83.002 19.1686 81.4841 17.257 79.1222 17.257C76.8168 17.257 75.2982 19.1686 75.2982 21.4176C75.2982 23.6673 76.8168 25.579 79.1222 25.579C81.4841 25.579 83.002 23.6673 83.002 21.4176ZM72.2334 21.4176C72.2334 17.7065 74.9609 14.5295 79.1222 14.5295C83.3393 14.5295 86.0667 17.7065 86.0667 21.4176C86.0667 25.1295 83.3393 28.3064 79.1222 28.3064C74.9609 28.3064 72.2334 25.1295 72.2334 21.4176Z" fill="#333333"/>
<path d="M87.9243 9.58986H90.989V16.6947C91.8041 15.2882 93.3223 14.5297 95.2622 14.5297C97.1456 14.5297 98.4674 15.2043 99.1985 16.3009C99.8448 17.2846 100.042 18.3812 100.042 20.1807V27.9692H96.977V21.1934C96.977 18.9436 96.3306 17.2289 94.1374 17.2289C92.0006 17.2289 90.989 18.9436 90.989 21.1934V27.9692H87.9243V9.58986Z" fill="#333333"/>
<path d="M105.329 20.0683H111.853C111.853 18.072 110.531 16.835 108.675 16.835C106.792 16.835 105.329 17.9316 105.329 20.0683ZM105.329 22.3456C105.47 24.2298 106.286 25.7476 108.844 25.7476C110.587 25.7476 111.262 24.9608 111.628 24.0328H114.721C114.355 26.2818 112.19 28.3064 108.844 28.3064C104.43 28.3064 102.293 25.2699 102.293 21.4176C102.293 17.4813 104.627 14.5295 108.76 14.5295C112.162 14.5295 114.833 17.0876 114.833 20.4339C114.833 20.8834 114.833 21.5023 114.692 22.3456H105.329Z" fill="#333333"/>
<path d="M125.771 17.7067C125.293 17.5945 125.04 17.5663 124.562 17.5663C121.947 17.5663 120.513 19.0567 120.513 22.3176V27.9694H117.449V14.8671H120.513V16.9756C121.103 15.7668 122.819 14.6984 124.562 14.6984C125.04 14.6984 125.433 14.7541 125.771 14.8953V17.7067Z" fill="#333333"/>
<path d="M129.646 20.0683H136.169C136.169 18.072 134.847 16.835 132.991 16.835C131.108 16.835 129.646 17.9316 129.646 20.0683ZM129.646 22.3456C129.786 24.2298 130.602 25.7476 133.16 25.7476C134.904 25.7476 135.578 24.9608 135.944 24.0328H139.037C138.671 26.2818 136.506 28.3064 133.16 28.3064C128.746 28.3064 126.609 25.2699 126.609 21.4176C126.609 17.4813 128.943 14.5295 133.076 14.5295C136.478 14.5295 139.149 17.0876 139.149 20.4339C139.149 20.8834 139.149 21.5023 139.009 22.3456H129.646Z" fill="#333333"/>
<path d="M141.543 14.867H144.608V16.6947C145.423 15.2882 146.942 14.5297 148.882 14.5297C150.765 14.5297 152.087 15.2043 152.818 16.3009C153.464 17.2846 153.661 18.3812 153.661 20.1807V27.9692H150.597V21.1934C150.597 18.9436 149.95 17.2289 147.757 17.2289C145.62 17.2289 144.608 18.9436 144.608 21.1934V27.9692H141.543V14.867Z" fill="#333333"/>
<path d="M163.421 27.9693C162.943 28.054 162.043 28.1379 161.144 28.1379C159.653 28.1379 156.898 27.9411 156.898 23.5271V17.4259H154.677V14.8671H156.898V10.9026H159.963V14.8671H162.971V17.4259H159.963V22.8242C159.963 25.1014 160.666 25.3823 161.875 25.3823C162.352 25.3823 163.112 25.3266 163.421 25.2701V27.9693Z" fill="#333333"/>
<path d="M35.0786 26.0003C35.0786 32.3514 29.9299 37.5002 23.5787 37.5002C17.2276 37.5002 12.0789 32.3515 12.0789 26.0004C12.0789 19.6492 17.2276 14.5005 23.5787 14.5005V3.00067C10.8764 3.00067 0.579102 13.298 0.579102 26.0003C0.579102 38.7027 10.8764 49 23.5787 49C36.2811 49 46.5784 38.7027 46.5784 26.0003H35.0786Z" fill="#333333"/>
<path d="M44.8937 4.68407C47.1391 6.92952 47.1391 10.5701 44.8936 12.8156V12.8156C42.6482 15.061 39.0076 15.061 36.7621 12.8156V12.8156C34.5167 10.5701 34.5167 6.92953 36.7621 4.68407V4.68407C39.0076 2.43862 42.6482 2.43861 44.8937 4.68407V4.68407Z" fill="#C50084"/>
<path d="M65.0476 48.3446C68.2606 48.3446 70.3006 46.5596 70.7426 44.1626H69.0426C68.6006 45.8456 67.2576 46.9506 65.0646 46.9506C62.1746 46.9506 60.5086 44.9276 60.5086 42.1226C60.5086 39.3176 62.1746 37.2946 65.0646 37.2946C67.2576 37.2946 68.6006 38.3996 69.0426 40.0826H70.7426C70.3006 37.6856 68.2606 35.9006 65.0476 35.9006C61.1886 35.9006 58.8936 38.5866 58.8936 42.1226C58.8936 45.6586 61.1886 48.3446 65.0476 48.3446ZM76.2548 48.2766C78.7878 48.2766 80.3348 46.4406 80.3348 44.1626C80.3348 41.8676 78.7878 40.0316 76.2548 40.0316C73.7048 40.0316 72.1748 41.8676 72.1748 44.1626C72.1748 46.4406 73.7048 48.2766 76.2548 48.2766ZM76.2548 46.9506C74.6058 46.9506 73.6368 45.7266 73.6368 44.1626C73.6368 42.5816 74.6058 41.3576 76.2548 41.3576C77.9038 41.3576 78.8558 42.5816 78.8558 44.1626C78.8558 45.7266 77.9038 46.9506 76.2548 46.9506ZM82.2335 48.0726H83.7125V43.9246C83.7125 42.3436 84.4605 41.3066 85.9225 41.3066C87.3165 41.3066 87.8945 42.1396 87.8945 43.8906V48.0726H89.3565V43.2446C89.3565 41.1536 88.3705 40.0316 86.4495 40.0316C85.0895 40.0316 84.1375 40.6776 83.7125 41.6806V40.2356H82.2335V48.0726ZM91.8292 48.0726H93.3082V43.9246C93.3082 42.3436 94.0562 41.3066 95.5182 41.3066C96.9122 41.3066 97.4902 42.1396 97.4902 43.8906V48.0726H98.9522V43.2446C98.9522 41.1536 97.9662 40.0316 96.0452 40.0316C94.6852 40.0316 93.7332 40.6776 93.3082 41.6806V40.2356H91.8292V48.0726ZM108.361 43.7206C108.361 41.5616 106.865 40.0316 104.655 40.0316C102.326 40.0316 100.796 41.6636 100.796 44.1456C100.796 46.6786 102.309 48.2766 104.723 48.2766C106.559 48.2766 108.004 47.2736 108.276 45.8286H106.797C106.474 46.5766 105.76 46.9846 104.723 46.9846C103.227 46.9846 102.292 46.1006 102.258 44.5876H108.327C108.361 44.2306 108.361 44.0096 108.361 43.7206ZM102.258 43.4486C102.326 42.1226 103.21 41.2216 104.638 41.2216C106.066 41.2216 106.916 42.0716 106.916 43.4486H102.258ZM113.654 48.2766C115.762 48.2766 117.122 47.1376 117.309 45.4206H115.83C115.626 46.4066 114.878 46.9506 113.637 46.9506C112.141 46.9506 111.223 45.8966 111.223 44.1626C111.223 42.4116 112.141 41.3746 113.637 41.3746C114.878 41.3746 115.626 41.9186 115.83 42.9556H117.309C117.122 41.2046 115.762 40.0486 113.654 40.0486C111.24 40.0486 109.761 41.7316 109.761 44.1626C109.761 46.5936 111.24 48.2766 113.654 48.2766ZM122.42 46.8486C121.672 46.8486 121.162 46.6446 121.162 45.1486V41.4766H123.134V40.2356H121.162V37.7536H119.683V40.2356H118.272V41.4766H119.683V45.4716C119.683 48.0046 121.162 48.1746 122.08 48.1746C122.59 48.1746 123.117 48.1236 123.406 48.0556V46.7466C123.185 46.7976 122.709 46.8486 122.42 46.8486Z" fill="#333333"/>
</svg>
